<?xml version="1.0" encoding="UTF-8" standalone="no"?>
<!DOCTYPE svg PUBLIC "-//W3C//DTD SVG 1.1//EN"
 "http://www.w3.org/Graphics/SVG/1.1/DTD/svg11.dtd">
<!-- Generated by graphviz version 2.42.3 (20191010.1750)
 -->
<!-- Title: %3 Pages: 1 -->
<svg width="328pt" height="372pt"
 viewBox="0.00 0.00 328.10 371.60" xmlns="http://www.w3.org/2000/svg" xmlns:xlink="http://www.w3.org/1999/xlink">
<g id="graph0" class="graph" transform="scale(1 1) rotate(0) translate(4 367.6)">
<title>%3</title>
<polygon fill="white" stroke="transparent" points="-4,4 -4,-367.6 324.1,-367.6 324.1,4 -4,4"/>
<!-- submit_training_pipeline.POST -->
<g id="node1" class="node">
<title>submit_training_pipeline.POST</title>
<ellipse fill="#aaccaa" stroke="black" cx="78.38" cy="-361.8" rx="1.8" ry="1.8"/>
</g>
<!-- submit_training_pipeline -->
<g id="node2" class="node">
<title>submit_training_pipeline</title>
<polygon fill="#aaccaa" stroke="black" points="156.64,-324 0.12,-324 0.12,-288 156.64,-288 156.64,-324"/>
<text text-anchor="middle" x="78.38" y="-301.8" font-family="Times,serif" font-size="14.00">submit_training_pipeline</text>
</g>
<!-- submit_training_pipeline.POST&#45;&gt;submit_training_pipeline -->
<g id="edge1" class="edge">
<title>submit_training_pipeline.POST&#45;&gt;submit_training_pipeline</title>
<path fill="none" stroke="black" d="M78.38,-359.87C78.38,-356.64 78.38,-345.55 78.38,-334.35"/>
<polygon fill="black" stroke="black" points="81.88,-334.26 78.38,-324.26 74.88,-334.26 81.88,-334.26"/>
</g>
<!-- data.preprocess -->
<g id="node5" class="node">
<title>data.preprocess</title>
<polygon fill="#aaccaa" stroke="black" points="213.56,-252 111.2,-252 111.2,-216 213.56,-216 213.56,-252"/>
<text text-anchor="middle" x="162.38" y="-229.8" font-family="Times,serif" font-size="14.00">data.preprocess</text>
</g>
<!-- submit_training_pipeline&#45;&gt;data.preprocess -->
<g id="edge2" class="edge">
<title>submit_training_pipeline&#45;&gt;data.preprocess</title>
<path fill="none" stroke="black" d="M99.14,-287.7C109.62,-278.97 122.49,-268.24 133.88,-258.75"/>
<polygon fill="black" stroke="black" points="136.41,-261.19 141.85,-252.1 131.93,-255.82 136.41,-261.19"/>
</g>
<!-- data.make&#45;sample&#45;data.POST -->
<g id="node3" class="node">
<title>data.make&#45;sample&#45;data.POST</title>
<ellipse fill="#aaccaa" stroke="black" cx="247.38" cy="-361.8" rx="1.8" ry="1.8"/>
</g>
<!-- data.make&#45;sample&#45;data -->
<g id="node4" class="node">
<title>data.make&#45;sample&#45;data</title>
<polygon fill="#aaccaa" stroke="black" points="320.31,-324 174.45,-324 174.45,-288 320.31,-288 320.31,-324"/>
<text text-anchor="middle" x="247.38" y="-301.8" font-family="Times,serif" font-size="14.00">data.make&#45;sample&#45;data</text>
</g>
<!-- data.make&#45;sample&#45;data.POST&#45;&gt;data.make&#45;sample&#45;data -->
<g id="edge4" class="edge">
<title>data.make&#45;sample&#45;data.POST&#45;&gt;data.make&#45;sample&#45;data</title>
<path fill="none" stroke="black" d="M247.38,-359.87C247.38,-356.64 247.38,-345.55 247.38,-334.35"/>
<polygon fill="black" stroke="black" points="250.88,-334.26 247.38,-324.26 243.88,-334.26 250.88,-334.26"/>
</g>
<!-- data.make&#45;sample&#45;data&#45;&gt;data.preprocess -->
<g id="edge3" class="edge">
<title>data.make&#45;sample&#45;data&#45;&gt;data.preprocess</title>
<path fill="none" stroke="black" d="M226.37,-287.7C215.66,-278.88 202.49,-268.03 190.88,-258.47"/>
<polygon fill="black" stroke="black" points="193.09,-255.76 183.15,-252.1 188.64,-261.16 193.09,-255.76"/>
</g>
<!-- data.feature&#45;calc -->
<g id="node6" class="node">
<title>data.feature&#45;calc</title>
<polygon fill="#aaccaa" stroke="black" points="216.75,-180 108.01,-180 108.01,-144 216.75,-144 216.75,-180"/>
<text text-anchor="middle" x="162.38" y="-157.8" font-family="Times,serif" font-size="14.00">data.feature&#45;calc</text>
</g>
<!-- data.preprocess&#45;&gt;data.feature&#45;calc -->
<g id="edge5" class="edge">
<title>data.preprocess&#45;&gt;data.feature&#45;calc</title>
<path fill="none" stroke="black" d="M162.38,-215.7C162.38,-207.98 162.38,-198.71 162.38,-190.11"/>
<polygon fill="black" stroke="black" points="165.88,-190.1 162.38,-180.1 158.88,-190.1 165.88,-190.1"/>
</g>
<!-- data.training&#45;data -->
<g id="node7" class="node">
<title>data.training&#45;data</title>
<polygon fill="#aaccaa" stroke="black" points="156.72,-108 42.04,-108 42.04,-72 156.72,-72 156.72,-108"/>
<text text-anchor="middle" x="99.38" y="-85.8" font-family="Times,serif" font-size="14.00">data.training&#45;data</text>
</g>
<!-- data.feature&#45;calc&#45;&gt;data.training&#45;data -->
<g id="edge7" class="edge">
<title>data.feature&#45;calc&#45;&gt;data.training&#45;data</title>
<path fill="none" stroke="black" d="M146.81,-143.7C139.18,-135.22 129.86,-124.86 121.5,-115.58"/>
<polygon fill="black" stroke="black" points="124.06,-113.2 114.77,-108.1 118.86,-117.88 124.06,-113.2"/>
</g>
<!-- data.prepare&#45;db -->
<g id="node8" class="node">
<title>data.prepare&#45;db</title>
<polygon fill="#aaccaa" stroke="black" points="278.33,-108 174.43,-108 174.43,-72 278.33,-72 278.33,-108"/>
<text text-anchor="middle" x="226.38" y="-85.8" font-family="Times,serif" font-size="14.00">data.prepare&#45;db</text>
</g>
<!-- data.feature&#45;calc&#45;&gt;data.prepare&#45;db -->
<g id="edge6" class="edge">
<title>data.feature&#45;calc&#45;&gt;data.prepare&#45;db</title>
<path fill="none" stroke="black" d="M178.2,-143.7C185.95,-135.22 195.42,-124.86 203.9,-115.58"/>
<polygon fill="black" stroke="black" points="206.58,-117.85 210.74,-108.1 201.41,-113.12 206.58,-117.85"/>
</g>
<!-- model.train -->
<g id="node9" class="node">
<title>model.train</title>
<polygon fill="#aaccaa" stroke="black" points="139.53,-36 59.23,-36 59.23,0 139.53,0 139.53,-36"/>
<text text-anchor="middle" x="99.38" y="-13.8" font-family="Times,serif" font-size="14.00">model.train</text>
</g>
<!-- data.training&#45;data&#45;&gt;model.train -->
<g id="edge8" class="edge">
<title>data.training&#45;data&#45;&gt;model.train</title>
<path fill="none" stroke="black" d="M99.38,-71.7C99.38,-63.98 99.38,-54.71 99.38,-46.11"/>
<polygon fill="black" stroke="black" points="102.88,-46.1 99.38,-36.1 95.88,-46.1 102.88,-46.1"/>
</g>
</g>
</svg>
