<?xml version="1.0" encoding="UTF-8" standalone="no"?>
<!DOCTYPE svg PUBLIC "-//W3C//DTD SVG 1.1//EN"
 "http://www.w3.org/Graphics/SVG/1.1/DTD/svg11.dtd">
<!-- Generated by graphviz version 2.42.3 (20191010.1750)
 -->
<!-- Title: %3 Pages: 1 -->
<svg width="208pt" height="84pt"
 viewBox="0.00 0.00 208.04 83.60" xmlns="http://www.w3.org/2000/svg" xmlns:xlink="http://www.w3.org/1999/xlink">
<g id="graph0" class="graph" transform="scale(1 1) rotate(0) translate(4 79.6)">
<title>%3</title>
<polygon fill="white" stroke="transparent" points="-4,4 -4,-79.6 204.04,-79.6 204.04,4 -4,4"/>
<!-- live.predict.POST -->
<g id="node1" class="node">
<title>live.predict.POST</title>
<ellipse fill="#aaccaa" stroke="black" cx="39.68" cy="-73.8" rx="1.8" ry="1.8"/>
</g>
<!-- live.predict -->
<g id="node2" class="node">
<title>live.predict</title>
<polygon fill="#aaccaa" stroke="black" points="79.54,-36 -0.18,-36 -0.18,0 79.54,0 79.54,-36"/>
<text text-anchor="middle" x="39.68" y="-13.8" font-family="Times,serif" font-size="14.00">live.predict</text>
</g>
<!-- live.predict.POST&#45;&gt;live.predict -->
<g id="edge1" class="edge">
<title>live.predict.POST&#45;&gt;live.predict</title>
<path fill="none" stroke="black" d="M39.68,-71.87C39.68,-68.64 39.68,-57.55 39.68,-46.35"/>
<polygon fill="black" stroke="black" points="43.18,-46.26 39.68,-36.26 36.18,-46.26 43.18,-46.26"/>
</g>
<!-- test.find_orders.GET -->
<g id="node3" class="node">
<title>test.find_orders.GET</title>
<ellipse fill="#aaccaa" stroke="black" cx="148.68" cy="-73.8" rx="1.8" ry="1.8"/>
</g>
<!-- test.find_orders -->
<g id="node4" class="node">
<title>test.find_orders</title>
<polygon fill="#aaccaa" stroke="black" points="199.9,-36 97.47,-36 97.47,0 199.9,0 199.9,-36"/>
<text text-anchor="middle" x="148.68" y="-13.8" font-family="Times,serif" font-size="14.00">test.find_orders</text>
</g>
<!-- test.find_orders.GET&#45;&gt;test.find_orders -->
<g id="edge2" class="edge">
<title>test.find_orders.GET&#45;&gt;test.find_orders</title>
<path fill="none" stroke="black" d="M148.68,-71.87C148.68,-68.64 148.68,-57.55 148.68,-46.35"/>
<polygon fill="black" stroke="black" points="152.18,-46.26 148.68,-36.26 145.18,-46.26 152.18,-46.26"/>
</g>
</g>
</svg>
