<?xml version="1.0" encoding="UTF-8" standalone="no"?>
<!DOCTYPE svg PUBLIC "-//W3C//DTD SVG 1.1//EN"
 "http://www.w3.org/Graphics/SVG/1.1/DTD/svg11.dtd">
<!-- Generated by graphviz version 2.42.3 (20191010.1750)
 -->
<!-- Title: %3 Pages: 1 -->
<svg width="396pt" height="737pt"
 viewBox="0.00 0.00 396.40 736.60" xmlns="http://www.w3.org/2000/svg" xmlns:xlink="http://www.w3.org/1999/xlink">
<g id="graph0" class="graph" transform="scale(1 1) rotate(0) translate(4 732.6)">
<title>%3</title>
<polygon fill="white" stroke="transparent" points="-4,4 -4,-732.6 392.4,-732.6 392.4,4 -4,4"/>
<!-- submit_training_pipeline.POST -->
<g id="node1" class="node">
<title>submit_training_pipeline.POST</title>
<ellipse fill="#aaccaa" stroke="black" cx="111.65" cy="-726.8" rx="1.8" ry="1.8"/>
</g>
<!-- submit_training_pipeline -->
<g id="node3" class="node">
<title>submit_training_pipeline</title>
<polygon fill="#aaccaa" stroke="black" points="189.9,-689 33.39,-689 33.39,-653 189.9,-653 189.9,-689"/>
<text text-anchor="middle" x="111.65" y="-666.8" font-family="Times,serif" font-size="14.00">submit_training_pipeline</text>
</g>
<!-- submit_training_pipeline.POST&#45;&gt;submit_training_pipeline -->
<g id="edge1" class="edge">
<title>submit_training_pipeline.POST&#45;&gt;submit_training_pipeline</title>
<path fill="none" stroke="black" d="M111.65,-724.87C111.65,-721.64 111.65,-710.55 111.65,-699.35"/>
<polygon fill="black" stroke="black" points="115.15,-699.26 111.65,-689.26 108.15,-699.26 115.15,-699.26"/>
</g>
<!-- fraud_poc.training.submit_training_pipeline -->
<g id="node2" class="node">
<title>fraud_poc.training.submit_training_pipeline</title>
<path fill="#aaaaff" stroke="black" d="M98.69,-580.5C98.69,-580.5 292.6,-580.5 292.6,-580.5 298.6,-580.5 304.6,-586.5 304.6,-592.5 304.6,-592.5 304.6,-604.5 304.6,-604.5 304.6,-610.5 298.6,-616.5 292.6,-616.5 292.6,-616.5 98.69,-616.5 98.69,-616.5 92.69,-616.5 86.69,-610.5 86.69,-604.5 86.69,-604.5 86.69,-592.5 86.69,-592.5 86.69,-586.5 92.69,-580.5 98.69,-580.5"/>
<text text-anchor="middle" x="195.65" y="-595.74" font-family="Times,serif" font-size="10.00">→ fraud_poc.training.submit_training_pipeline →</text>
</g>
<!-- data.preprocess -->
<g id="node7" class="node">
<title>data.preprocess</title>
<polygon fill="#aaccaa" stroke="black" points="246.83,-544 144.47,-544 144.47,-508 246.83,-508 246.83,-544"/>
<text text-anchor="middle" x="195.65" y="-521.8" font-family="Times,serif" font-size="14.00">data.preprocess</text>
</g>
<!-- fraud_poc.training.submit_training_pipeline&#45;&gt;data.preprocess -->
<g id="edge2" class="edge">
<title>fraud_poc.training.submit_training_pipeline&#45;&gt;data.preprocess</title>
<path fill="none" stroke="black" d="M195.65,-580.43C195.65,-572.67 195.65,-563.28 195.65,-554.56"/>
<polygon fill="black" stroke="black" points="199.15,-554.4 195.65,-544.4 192.15,-554.4 199.15,-554.4"/>
</g>
<!-- submit_training_pipeline&#45;&gt;fraud_poc.training.submit_training_pipeline -->
<g id="edge3" class="edge">
<title>submit_training_pipeline&#45;&gt;fraud_poc.training.submit_training_pipeline</title>
<path fill="none" stroke="black" d="M131.98,-652.93C142.63,-643.99 155.84,-632.91 167.47,-623.15"/>
<polygon fill="black" stroke="black" points="169.8,-625.76 175.21,-616.65 165.3,-620.4 169.8,-625.76"/>
</g>
<!-- data.make&#45;sample&#45;data.POST -->
<g id="node4" class="node">
<title>data.make&#45;sample&#45;data.POST</title>
<ellipse fill="#aaccaa" stroke="black" cx="280.65" cy="-726.8" rx="1.8" ry="1.8"/>
</g>
<!-- data.make&#45;sample&#45;data -->
<g id="node5" class="node">
<title>data.make&#45;sample&#45;data</title>
<polygon fill="#aaccaa" stroke="black" points="353.58,-689 207.71,-689 207.71,-653 353.58,-653 353.58,-689"/>
<text text-anchor="middle" x="280.65" y="-666.8" font-family="Times,serif" font-size="14.00">data.make&#45;sample&#45;data</text>
</g>
<!-- data.make&#45;sample&#45;data.POST&#45;&gt;data.make&#45;sample&#45;data -->
<g id="edge5" class="edge">
<title>data.make&#45;sample&#45;data.POST&#45;&gt;data.make&#45;sample&#45;data</title>
<path fill="none" stroke="black" d="M280.65,-724.87C280.65,-721.64 280.65,-710.55 280.65,-699.35"/>
<polygon fill="black" stroke="black" points="284.15,-699.26 280.65,-689.26 277.15,-699.26 284.15,-699.26"/>
</g>
<!-- data.make&#45;sample&#45;data&#45;&gt;fraud_poc.training.submit_training_pipeline -->
<g id="edge4" class="edge">
<title>data.make&#45;sample&#45;data&#45;&gt;fraud_poc.training.submit_training_pipeline</title>
<path fill="none" stroke="black" d="M260.07,-652.93C249.29,-643.99 235.92,-632.91 224.16,-623.15"/>
<polygon fill="black" stroke="black" points="226.26,-620.34 216.33,-616.65 221.79,-625.73 226.26,-620.34"/>
</g>
<!-- fraud_poc.training.data.preprocess -->
<g id="node6" class="node">
<title>fraud_poc.training.data.preprocess</title>
<path fill="#aaaaff" stroke="black" d="M118,-435.5C118,-435.5 273.29,-435.5 273.29,-435.5 279.29,-435.5 285.29,-441.5 285.29,-447.5 285.29,-447.5 285.29,-459.5 285.29,-459.5 285.29,-465.5 279.29,-471.5 273.29,-471.5 273.29,-471.5 118,-471.5 118,-471.5 112,-471.5 106,-465.5 106,-459.5 106,-459.5 106,-447.5 106,-447.5 106,-441.5 112,-435.5 118,-435.5"/>
<text text-anchor="middle" x="195.65" y="-450.74" font-family="Times,serif" font-size="10.00">→ fraud_poc.training.data.preprocess →</text>
</g>
<!-- data.feature&#45;calc -->
<g id="node9" class="node">
<title>data.feature&#45;calc</title>
<polygon fill="#aaccaa" stroke="black" points="250.01,-399 141.28,-399 141.28,-363 250.01,-363 250.01,-399"/>
<text text-anchor="middle" x="195.65" y="-376.8" font-family="Times,serif" font-size="14.00">data.feature&#45;calc</text>
</g>
<!-- fraud_poc.training.data.preprocess&#45;&gt;data.feature&#45;calc -->
<g id="edge6" class="edge">
<title>fraud_poc.training.data.preprocess&#45;&gt;data.feature&#45;calc</title>
<path fill="none" stroke="black" d="M195.65,-435.43C195.65,-427.67 195.65,-418.28 195.65,-409.56"/>
<polygon fill="black" stroke="black" points="199.15,-409.4 195.65,-399.4 192.15,-409.4 199.15,-409.4"/>
</g>
<!-- data.preprocess&#45;&gt;fraud_poc.training.data.preprocess -->
<g id="edge7" class="edge">
<title>data.preprocess&#45;&gt;fraud_poc.training.data.preprocess</title>
<path fill="none" stroke="black" d="M195.65,-507.93C195.65,-500.17 195.65,-490.78 195.65,-482.06"/>
<polygon fill="black" stroke="black" points="199.15,-481.9 195.65,-471.9 192.15,-481.9 199.15,-481.9"/>
</g>
<!-- fraud_poc.training.data.feature_calc -->
<g id="node8" class="node">
<title>fraud_poc.training.data.feature_calc</title>
<path fill="#aaaaff" stroke="black" d="M114.96,-290.5C114.96,-290.5 276.34,-290.5 276.34,-290.5 282.34,-290.5 288.34,-296.5 288.34,-302.5 288.34,-302.5 288.34,-314.5 288.34,-314.5 288.34,-320.5 282.34,-326.5 276.34,-326.5 276.34,-326.5 114.96,-326.5 114.96,-326.5 108.96,-326.5 102.96,-320.5 102.96,-314.5 102.96,-314.5 102.96,-302.5 102.96,-302.5 102.96,-296.5 108.96,-290.5 114.96,-290.5"/>
<text text-anchor="middle" x="195.65" y="-305.74" font-family="Times,serif" font-size="10.00">→ fraud_poc.training.data.feature_calc →</text>
</g>
<!-- data.training&#45;data -->
<g id="node11" class="node">
<title>data.training&#45;data</title>
<polygon fill="#aaccaa" stroke="black" points="189.99,-254 75.3,-254 75.3,-218 189.99,-218 189.99,-254"/>
<text text-anchor="middle" x="132.65" y="-231.8" font-family="Times,serif" font-size="14.00">data.training&#45;data</text>
</g>
<!-- fraud_poc.training.data.feature_calc&#45;&gt;data.training&#45;data -->
<g id="edge8" class="edge">
<title>fraud_poc.training.data.feature_calc&#45;&gt;data.training&#45;data</title>
<path fill="none" stroke="black" d="M180.39,-290.43C172.77,-281.9 163.4,-271.41 154.98,-261.99"/>
<polygon fill="black" stroke="black" points="157.47,-259.52 148.19,-254.4 152.25,-264.19 157.47,-259.52"/>
</g>
<!-- data.prepare&#45;db -->
<g id="node13" class="node">
<title>data.prepare&#45;db</title>
<polygon fill="#aaccaa" stroke="black" points="330.59,-254 226.7,-254 226.7,-218 330.59,-218 330.59,-254"/>
<text text-anchor="middle" x="278.65" y="-231.8" font-family="Times,serif" font-size="14.00">data.prepare&#45;db</text>
</g>
<!-- fraud_poc.training.data.feature_calc&#45;&gt;data.prepare&#45;db -->
<g id="edge9" class="edge">
<title>fraud_poc.training.data.feature_calc&#45;&gt;data.prepare&#45;db</title>
<path fill="none" stroke="black" d="M215.74,-290.43C226.26,-281.49 239.32,-270.41 250.8,-260.65"/>
<polygon fill="black" stroke="black" points="253.1,-263.29 258.45,-254.15 248.56,-257.96 253.1,-263.29"/>
</g>
<!-- data.feature&#45;calc&#45;&gt;fraud_poc.training.data.feature_calc -->
<g id="edge10" class="edge">
<title>data.feature&#45;calc&#45;&gt;fraud_poc.training.data.feature_calc</title>
<path fill="none" stroke="black" d="M195.65,-362.93C195.65,-355.17 195.65,-345.78 195.65,-337.06"/>
<polygon fill="black" stroke="black" points="199.15,-336.9 195.65,-326.9 192.15,-336.9 199.15,-336.9"/>
</g>
<!-- fraud_poc.training.data.training_data -->
<g id="node10" class="node">
<title>fraud_poc.training.data.training_data</title>
<path fill="#aaaaff" stroke="black" d="M12,-145.5C12,-145.5 177.29,-145.5 177.29,-145.5 183.29,-145.5 189.29,-151.5 189.29,-157.5 189.29,-157.5 189.29,-169.5 189.29,-169.5 189.29,-175.5 183.29,-181.5 177.29,-181.5 177.29,-181.5 12,-181.5 12,-181.5 6,-181.5 0,-175.5 0,-169.5 0,-169.5 0,-157.5 0,-157.5 0,-151.5 6,-145.5 12,-145.5"/>
<text text-anchor="middle" x="94.65" y="-160.74" font-family="Times,serif" font-size="10.00">→ fraud_poc.training.data.training_data →</text>
</g>
<!-- model.train -->
<g id="node15" class="node">
<title>model.train</title>
<polygon fill="#aaccaa" stroke="black" points="134.79,-109 54.5,-109 54.5,-73 134.79,-73 134.79,-109"/>
<text text-anchor="middle" x="94.65" y="-86.8" font-family="Times,serif" font-size="14.00">model.train</text>
</g>
<!-- fraud_poc.training.data.training_data&#45;&gt;model.train -->
<g id="edge11" class="edge">
<title>fraud_poc.training.data.training_data&#45;&gt;model.train</title>
<path fill="none" stroke="black" d="M94.65,-145.43C94.65,-137.67 94.65,-128.28 94.65,-119.56"/>
<polygon fill="black" stroke="black" points="98.15,-119.4 94.65,-109.4 91.15,-119.4 98.15,-119.4"/>
</g>
<!-- data.training&#45;data&#45;&gt;fraud_poc.training.data.training_data -->
<g id="edge12" class="edge">
<title>data.training&#45;data&#45;&gt;fraud_poc.training.data.training_data</title>
<path fill="none" stroke="black" d="M123.45,-217.93C119.08,-209.83 113.76,-199.96 108.88,-190.91"/>
<polygon fill="black" stroke="black" points="111.85,-189.04 104.02,-181.9 105.69,-192.36 111.85,-189.04"/>
</g>
<!-- fraud_poc.training.data.prepare_db -->
<g id="node12" class="node">
<title>fraud_poc.training.data.prepare_db</title>
<path fill="#aaaaff" stroke="black" d="M218.89,-145.5C218.89,-145.5 376.4,-145.5 376.4,-145.5 382.4,-145.5 388.4,-151.5 388.4,-157.5 388.4,-157.5 388.4,-169.5 388.4,-169.5 388.4,-175.5 382.4,-181.5 376.4,-181.5 376.4,-181.5 218.89,-181.5 218.89,-181.5 212.89,-181.5 206.89,-175.5 206.89,-169.5 206.89,-169.5 206.89,-157.5 206.89,-157.5 206.89,-151.5 212.89,-145.5 218.89,-145.5"/>
<text text-anchor="middle" x="297.65" y="-160.74" font-family="Times,serif" font-size="10.00">→ fraud_poc.training.data.prepare_db →</text>
</g>
<!-- data.prepare&#45;db&#45;&gt;fraud_poc.training.data.prepare_db -->
<g id="edge13" class="edge">
<title>data.prepare&#45;db&#45;&gt;fraud_poc.training.data.prepare_db</title>
<path fill="none" stroke="black" d="M283.24,-217.93C285.36,-210.08 287.92,-200.58 290.3,-191.77"/>
<polygon fill="black" stroke="black" points="293.73,-192.46 292.96,-181.9 286.97,-190.64 293.73,-192.46"/>
</g>
<!-- fraud_poc.training.model.train -->
<g id="node14" class="node">
<title>fraud_poc.training.model.train</title>
<path fill="#aaaaff" stroke="black" d="M25.05,-0.5C25.05,-0.5 164.24,-0.5 164.24,-0.5 170.24,-0.5 176.24,-6.5 176.24,-12.5 176.24,-12.5 176.24,-24.5 176.24,-24.5 176.24,-30.5 170.24,-36.5 164.24,-36.5 164.24,-36.5 25.05,-36.5 25.05,-36.5 19.05,-36.5 13.05,-30.5 13.05,-24.5 13.05,-24.5 13.05,-12.5 13.05,-12.5 13.05,-6.5 19.05,-0.5 25.05,-0.5"/>
<text text-anchor="middle" x="94.65" y="-15.74" font-family="Times,serif" font-size="10.00">→ fraud_poc.training.model.train →</text>
</g>
<!-- model.train&#45;&gt;fraud_poc.training.model.train -->
<g id="edge14" class="edge">
<title>model.train&#45;&gt;fraud_poc.training.model.train</title>
<path fill="none" stroke="black" d="M94.65,-72.93C94.65,-65.17 94.65,-55.78 94.65,-47.06"/>
<polygon fill="black" stroke="black" points="98.15,-46.9 94.65,-36.9 91.15,-46.9 98.15,-46.9"/>
</g>
</g>
</svg>
